<svg width="512" height="512" viewBox="0 0 512 512" fill="none" xmlns="http://www.w3.org/2000/svg">
  <!-- Uplift Rising U Logo Mark -->
  <!-- The left stem grounds you. The right stem lifts you. -->
  
  <!-- Left vertical stem -->
  <path d="M144 144 L144 368 Q144 416 192 416 L224 416 L224 392 L192 392 Q168 392 168 368 L168 144 L144 144 Z" fill="#FF6B35"/>
  
  <!-- Rising right stem (45° upward) -->
  <path d="M320 416 L320 392 L344 392 Q368 392 368 368 L368 240 L288 144 L312 120 L392 216 L392 368 Q392 416 344 416 L320 416 Z" fill="#FF6B35"/>
  
  <!-- Bottom connecting curve -->
  <path d="M168 368 Q168 392 192 392 L320 392 Q344 392 344 368" stroke="#FF6B35" stroke-width="24" fill="none" stroke-linecap="round"/>
  
  <!-- Arrow head accent on rising stem -->
  <path d="M340 96 L392 160 L368 160 L340 124 L312 160 L288 160 L340 96 Z" fill="#FF6B35"/>
</svg>